<svg width="82" height="82" viewBox="0 0 82 82" fill="none" xmlns="http://www.w3.org/2000/svg">
<g id="alarm-clock-svgrepo-com 1">
<path id="Vector" d="M55.1258 37.6046C39.3103 34.1373 52.275 12.2039 30.6059 14.0216C8.93671 15.8394 -11.6113 65.7361 26.8582 77.4195C65.3277 89.1029 85.1551 44.1871 55.1258 37.6046Z" fill="#464BD8"/>
<path id="Vector_2" d="M25.4969 64.9513C25.3527 64.9513 25.2086 64.9113 25.0805 64.8152L23.8312 63.9263C23.5269 63.7101 23.4389 63.2857 23.6391 62.9654L27.8031 56.2308C27.9072 56.0626 28.0754 55.9425 28.2676 55.9025C28.3156 55.8945 28.3637 55.8865 28.4117 55.8865C28.5559 55.8865 28.708 55.9345 28.8281 56.0226L30.9342 57.5201C31.0943 57.6322 31.1984 57.8083 31.2305 58.0085C31.2545 58.2087 31.1984 58.4009 31.0783 58.5611L26.0574 64.6871C25.989 64.7694 25.9033 64.8357 25.8065 64.8814C25.7096 64.927 25.6039 64.9509 25.4969 64.9513Z" fill="#464BD8"/>
<path id="Vector_3" d="M28.4117 56.6072L30.5178 58.1047L25.4969 64.2307L24.2476 63.3418L28.4117 56.6072ZM28.4117 55.1738C28.3156 55.1738 28.2195 55.1818 28.1314 55.2059C27.7391 55.2859 27.4027 55.5182 27.1945 55.8545L23.0305 62.5891C22.6301 63.2297 22.8062 64.0705 23.4148 64.5109L24.6641 65.3998C24.9123 65.576 25.2086 65.6641 25.4969 65.6641C25.9133 65.6641 26.3217 65.4799 26.61 65.1355L31.6309 59.0096C31.8791 58.7053 31.9912 58.3049 31.9432 57.9125C31.8871 57.5201 31.6789 57.1678 31.3586 56.9355L29.2525 55.4381C28.9963 55.2699 28.708 55.1738 28.4117 55.1738Z" fill="#151B28"/>
<path id="Vector_4" d="M50.3531 64.9513C50.1449 64.9513 49.9367 64.8632 49.8006 64.6871L44.7797 58.5611C44.716 58.4854 44.6694 58.3968 44.6432 58.3015C44.6169 58.2061 44.6116 58.1062 44.6276 58.0085C44.6516 57.8083 44.7637 57.6322 44.9238 57.5201L47.0299 56.0226C47.15 55.9345 47.2942 55.8865 47.4463 55.8865C47.4943 55.8865 47.5424 55.8945 47.5904 55.9025C47.7826 55.9425 47.9508 56.0626 48.0549 56.2308L52.219 62.9654C52.4192 63.2857 52.3311 63.7101 52.0268 63.9263L50.7695 64.8232C50.6481 64.9095 50.5021 64.9544 50.3531 64.9513Z" fill="#514DDF"/>
<path id="Vector_5" d="M47.4463 56.6072L51.6103 63.3418L50.3611 64.2307L45.3402 58.1047L47.4463 56.6072ZM47.4463 55.1738C47.15 55.1738 46.8617 55.2619 46.6135 55.4381L44.5074 56.9355C44.1871 57.1678 43.9709 57.5201 43.9228 57.9125C43.8668 58.3049 43.9869 58.7053 44.2352 59.0096L49.256 65.1355C49.4866 65.4179 49.8157 65.6021 50.1769 65.6512C50.5381 65.7002 50.9044 65.6104 51.202 65.3998L52.4512 64.5109C53.0678 64.0705 53.2359 63.2297 52.8355 62.5891L48.6715 55.8545C48.4633 55.5182 48.1269 55.2779 47.7346 55.2059C47.6305 55.1898 47.5344 55.1738 47.4463 55.1738Z" fill="#151B28"/>
<path id="Vector_6" d="M27.0391 58.6829C28.4683 60.1121 30.165 61.2458 32.0323 62.0193C33.8996 62.7927 35.901 63.1908 37.9222 63.1908C39.9433 63.1908 41.9447 62.7927 43.8121 62.0193C45.6794 61.2458 47.3761 60.1121 48.8053 58.6829C50.2345 57.2537 51.3681 55.557 52.1416 53.6897C52.9151 51.8224 53.3132 49.821 53.3132 47.7998C53.3132 45.7787 52.9151 43.7773 52.1416 41.9099C51.3681 40.0426 50.2345 38.3459 48.8053 36.9167C45.9189 34.0304 42.0041 32.4088 37.9222 32.4088C33.8402 32.4088 29.9255 34.0304 27.0391 36.9167C24.1527 39.8031 22.5312 43.7179 22.5312 47.7998C22.5312 51.8818 24.1527 55.7965 27.0391 58.6829Z" fill="white"/>
<path id="Vector_7" d="M37.925 33.1524C46.0129 33.1524 52.5713 39.7108 52.5713 47.7987C52.5713 55.8866 46.0129 62.445 37.925 62.445C29.8371 62.445 23.2787 55.8946 23.2787 47.7987C23.2787 39.7028 29.8371 33.1524 37.925 33.1524ZM37.925 31.6709C35.7469 31.6709 33.6328 32.0954 31.6469 32.9362C29.725 33.745 28.0033 34.9141 26.5219 36.3956C25.0404 37.877 23.8793 39.5987 23.0625 41.5206C22.2217 43.5065 21.7973 45.6206 21.7973 47.7987C21.7973 49.9768 22.2217 52.0909 23.0625 54.0768C23.8713 55.9987 25.0404 57.7204 26.5219 59.2018C28.0033 60.6833 29.725 61.8444 31.6469 62.6612C33.6328 63.502 35.7469 63.9264 37.925 63.9264C40.1031 63.9264 42.2172 63.502 44.2031 62.6612C46.125 61.8524 47.8467 60.6833 49.3281 59.2018C50.8096 57.7204 51.9707 55.9987 52.7875 54.0768C53.6283 52.0909 54.0527 49.9768 54.0527 47.7987C54.0527 45.6206 53.6283 43.5065 52.7875 41.5206C51.9787 39.5987 50.8096 37.877 49.3281 36.3956C47.8467 34.9141 46.125 33.753 44.2031 32.9362C42.2169 32.0961 40.0815 31.6658 37.925 31.6709Z" fill="#151B28"/>
<path id="Vector_8" d="M27.5389 48.8076C27.5389 51.8128 28.7327 54.6949 30.8577 56.8199C32.9827 58.9449 35.8648 60.1387 38.8699 60.1387C41.8751 60.1387 44.7572 58.9449 46.8822 56.8199C49.0072 54.6949 50.201 51.8128 50.201 48.8076C50.201 45.8024 49.0072 42.9203 46.8822 40.7954C44.7572 38.6704 41.8751 37.4766 38.8699 37.4766C35.8648 37.4766 32.9827 38.6704 30.8577 40.7954C28.7327 42.9203 27.5389 45.8024 27.5389 48.8076Z" fill="#2AEFC8"/>
<path id="Vector_9" d="M37.925 36.3235C44.2672 36.3235 49.4002 41.4645 49.4002 47.7987C49.4002 54.1328 44.2592 59.2738 37.925 59.2738C31.5908 59.2738 26.4498 54.1328 26.4498 47.7987C26.4498 41.4645 31.5828 36.3235 37.925 36.3235ZM37.925 35.5707C34.6578 35.5707 31.5828 36.844 29.2766 39.1502C26.9623 41.4645 25.6971 44.5315 25.6971 47.7987C25.6971 51.0658 26.9703 54.1408 29.2766 56.4471C31.5908 58.7614 34.6578 60.0266 37.925 60.0266C41.1922 60.0266 44.2672 58.7533 46.5735 56.4471C48.8877 54.1328 50.1529 51.0658 50.1529 47.7987C50.1529 44.5315 48.8797 41.4565 46.5735 39.1502C45.4399 38.0117 44.092 37.1092 42.6075 36.4948C41.1231 35.8804 39.5316 35.5663 37.925 35.5707Z" fill="#151B28"/>
<path id="Vector_10" d="M23.1185 37.909C22.8623 37.909 22.6301 37.7809 22.4939 37.5647C21.7951 36.4661 21.4435 35.1824 21.4849 33.8811C21.533 32.1514 22.2377 30.5338 23.4869 29.3246C24.7142 28.1217 26.3649 27.4488 28.0834 27.4508H28.2596C30.1174 27.4989 31.8631 28.3317 33.0562 29.725C33.2244 29.9172 33.2724 30.1815 33.2004 30.4297C33.1283 30.678 32.9281 30.8621 32.6799 30.9262C28.9642 31.9192 25.7932 34.2655 23.7592 37.5567C23.6907 37.6646 23.5961 37.7535 23.4841 37.8151C23.3721 37.8767 23.2464 37.909 23.1185 37.909Z" fill="white"/>
<path id="Vector_11" d="M28.0754 28.1956H28.2275C29.9332 28.2436 31.4547 29.0124 32.4797 30.2135C28.5558 31.2545 25.2166 33.785 23.1185 37.1643C22.5019 36.1884 22.1897 35.0511 22.2217 33.8971C22.3017 30.726 24.9123 28.1956 28.0754 28.1956ZM28.0754 26.7141C26.1535 26.7141 24.3357 27.4508 22.9584 28.7961C21.5816 30.1294 20.7824 31.9492 20.7322 33.8651C20.6922 35.3225 21.0846 36.7399 21.8613 37.9651C22.1336 38.3975 22.606 38.6538 23.1105 38.6538H23.1185C23.631 38.6538 24.1035 38.3815 24.3678 37.9491C26.3057 34.826 29.3166 32.5918 32.848 31.6469C33.0901 31.5825 33.3118 31.4577 33.4925 31.2843C33.6732 31.1109 33.807 30.8945 33.8814 30.6554C33.9558 30.4162 33.9683 30.1621 33.9179 29.9168C33.8674 29.6715 33.7555 29.4429 33.5928 29.2526C32.93 28.4789 32.1121 27.853 31.1919 27.4157C30.2718 26.9784 29.27 26.7394 28.2516 26.7141H28.0754Z" fill="#151B28"/>
<path id="Vector_12" d="M52.7314 37.909C52.4752 37.909 52.243 37.7729 52.1068 37.5567C50.0728 34.2735 46.9017 31.9192 43.1861 30.9262C42.9379 30.8621 42.7457 30.6699 42.6656 30.4297C42.5935 30.1895 42.6416 29.9252 42.8098 29.725C43.4048 29.0304 44.1395 28.4689 44.9659 28.0771C45.7923 27.6853 46.692 27.4719 47.6064 27.4508H47.7826C49.5043 27.4508 51.1379 28.1155 52.3791 29.3246C53.6166 30.5232 54.3353 32.1589 54.381 33.8811C54.4131 35.1944 54.0687 36.4676 53.3721 37.5647C53.3019 37.6704 53.2068 37.7572 53.095 37.8173C52.9832 37.8774 52.8583 37.9089 52.7314 37.909Z" fill="white"/>
<path id="Vector_13" d="M47.7746 28.1956C50.9377 28.1956 53.5483 30.726 53.6283 33.9051C53.6604 35.1063 53.324 36.2354 52.7315 37.1723C50.6111 33.7469 47.2626 31.2606 43.3703 30.2215C44.3873 29.0204 45.9168 28.2516 47.6225 28.2036C47.6785 28.2036 47.7266 28.1956 47.7746 28.1956ZM47.7746 26.7141H47.5824C45.5164 26.7702 43.5705 27.6911 42.2412 29.2526C41.9129 29.637 41.8008 30.1735 41.9529 30.654C42.1051 31.1424 42.4975 31.5108 42.9859 31.6469C46.5174 32.5838 49.5363 34.826 51.4662 37.9491C51.7385 38.3815 52.2109 38.6458 52.7154 38.6538H52.7235C53.2279 38.6538 53.7004 38.3975 53.9727 37.9651C54.7494 36.7399 55.1418 35.3225 55.1018 33.8651C55.0537 31.9432 54.2609 30.1415 52.8756 28.7961C51.5143 27.4508 49.6965 26.7141 47.7746 26.7141Z" fill="#151B28"/>
<path id="Vector_14" d="M37.925 48.5434C37.5166 48.5434 37.1803 48.2151 37.1803 47.7987V40.6076C37.1803 40.1992 37.5086 39.8629 37.925 39.8629C38.3414 39.8629 38.6697 40.1912 38.6697 40.6076V47.7987C38.6697 48.2151 38.3334 48.5434 37.925 48.5434Z" fill="#151B28"/>
<path id="Vector_15" d="M41.1521 50.4332C41.024 50.4332 40.8959 50.4012 40.7758 50.3291L37.5486 48.4393C37.3791 48.3391 37.2561 48.1759 37.2066 47.9853C37.157 47.7947 37.185 47.5923 37.2844 47.4223C37.3845 47.2527 37.5477 47.1297 37.7383 47.0802C37.9289 47.0307 38.1313 47.0587 38.3014 47.158L41.5285 49.0479C41.6981 49.148 41.821 49.3112 41.8706 49.5018C41.9201 49.6924 41.8921 49.8948 41.7928 50.0649C41.7285 50.1778 41.6352 50.2715 41.5226 50.3363C41.41 50.401 41.2821 50.4345 41.1521 50.4332Z" fill="#151B28"/>
</g>
</svg>
