<svg width="90" height="90" viewBox="0 0 90 90" fill="none" xmlns="http://www.w3.org/2000/svg">
<g id="gamepad-svgrepo-com 1">
<path id="Vector" d="M64.3447 35.0947C46.9863 31.289 61.2158 7.21577 37.4326 9.21089C13.6494 11.206 -8.90332 65.9706 33.3193 78.7939C75.542 91.6171 97.3037 42.3193 64.3447 35.0947Z" fill="#464BD8"/>
<path id="Vector_2" d="M62.9736 66.1289C62.6748 66.1289 62.376 66.0937 62.0684 66.0146C59.5723 65.3818 57.7705 63.0615 55.8633 60.6094C53.5869 57.6826 51.2314 54.6592 47.4258 53.6924C46.3799 53.4287 45.3955 53.2969 44.4199 53.2969C41.4756 53.2969 39.2695 54.5273 37.1338 55.7139C35.0859 56.8564 33.1523 57.9287 30.7178 57.9287C30.041 57.9287 29.3467 57.8408 28.6523 57.665C27.2988 57.3223 25.1191 56.0391 25.7168 51.2578C26.209 47.3027 28.5645 42.0117 31.7021 37.7842C33.8291 34.9189 38.1445 30.1113 43.0752 30.1113C43.6641 30.1113 44.2529 30.1816 44.8154 30.3223C44.9209 30.3486 45.0176 30.4014 45.1055 30.4629C49.2715 33.6357 52.1455 34.8135 55.7051 34.8135C57.0322 34.8135 58.4912 34.6377 60.1523 34.2861C60.2744 34.2602 60.4008 34.2632 60.5215 34.2949C62.0596 34.6816 63.4307 35.7978 64.5996 37.5996C65.6016 39.1553 66.4365 41.1768 67.0693 43.6113C68.2295 48.0498 68.6074 53.543 68.0625 57.9551C67.4033 63.2285 65.6016 66.1289 62.9736 66.1289Z" fill="white"/>
<path id="Vector_3" d="M43.084 30.9287C43.6025 30.9287 44.1123 30.9902 44.6221 31.1221C48.6035 34.1543 51.7061 35.6396 55.7139 35.6396C57.1201 35.6396 58.6318 35.4551 60.3281 35.0947C68.748 37.2217 69.917 65.3203 62.9736 65.3203C62.7451 65.3203 62.5166 65.2939 62.2705 65.2324C57.3311 63.9844 55.0283 54.7822 47.6191 52.9102C46.459 52.6201 45.3955 52.4883 44.4199 52.4883C38.4697 52.4883 35.4287 57.1289 30.7178 57.1289C30.1201 57.1289 29.5049 57.0586 28.8457 56.8916C21.3311 54.9756 32.8359 30.9287 43.084 30.9287ZM43.0752 29.3027C37.793 29.3027 33.2754 34.3125 31.0518 37.3008C29.4697 39.4277 28.0635 41.8447 26.9736 44.2705C25.875 46.7402 25.1631 49.1221 24.9082 51.1611C24.6885 52.9102 24.8115 54.4043 25.2686 55.5908C25.8486 57.0938 26.9473 58.0869 28.4502 58.4648C29.2061 58.6582 29.9707 58.7549 30.7178 58.7549C33.3545 58.7549 35.4814 57.5771 37.5293 56.4346C39.665 55.2393 41.6865 54.1143 44.4199 54.1143C45.3252 54.1143 46.2393 54.2373 47.2236 54.4834C50.7568 55.3799 53.0244 58.2891 55.2217 61.1104C57.2168 63.6768 59.1064 66.1025 61.875 66.8057C62.2441 66.9023 62.6133 66.9463 62.9736 66.9463C64.7666 66.9463 67.9043 65.7949 68.8711 58.0605C69.1435 55.8545 69.1963 53.3496 69.0293 50.8096C68.8535 48.2344 68.4492 45.668 67.8603 43.4092C67.2012 40.8867 66.331 38.7861 65.2852 37.1689C64.0019 35.1826 62.4639 33.9521 60.7236 33.5127C60.4854 33.4481 60.2352 33.442 59.9941 33.4951C58.3857 33.8379 56.9883 34.0049 55.7139 34.0049C52.3477 34.0049 49.6143 32.8711 45.6064 29.8213C45.4307 29.6895 45.2285 29.5928 45.0176 29.54C44.3936 29.3818 43.7432 29.3027 43.0752 29.3027Z" fill="#151B28"/>
<path id="Vector_4" d="M62.2705 65.2236C57.3311 63.9756 55.0371 54.7734 47.6279 52.9013C38.54 50.5986 35.5693 58.5791 28.8545 56.8828C28.0635 56.6806 27.4834 56.2412 27.0879 55.5996C28.5293 47.3203 37.459 34.1543 45.0703 36.0791C50.4404 40.166 54.2197 41.4404 60.7764 40.0517C64.292 40.9394 66.5508 46.3623 67.4648 52.3828C67.7109 59.625 66.0147 66.1728 62.2705 65.2236Z" fill="#2AEFC8"/>
<path id="Vector_5" d="M62.2705 65.2236C57.3311 63.9756 55.0371 54.7734 47.6279 52.9013C38.54 50.5986 35.5693 58.5791 28.8545 56.8828C28.0635 56.6806 27.4834 56.2412 27.0879 55.5996C28.5293 47.3203 37.459 34.1543 45.0703 36.0791C50.4404 40.166 54.2197 41.4404 60.7764 40.0517C64.292 40.9394 66.5508 46.3623 67.4648 52.3828C67.7109 59.625 66.0147 66.1728 62.2705 65.2236Z" fill="#2AEFC8"/>
<path id="Vector_6" d="M54.6592 44.2705C53.9209 43.875 53.7275 42.9785 54.2197 42.2666C54.5889 41.625 55.5117 41.335 56.2236 41.8271C56.9619 42.2227 57.1553 43.1191 56.6631 43.8311C56.2939 44.4727 55.3975 44.6748 54.6592 44.2705Z" fill="#151B28"/>
<path id="Vector_7" d="M57.5684 47.3203C57.1992 47.9619 56.2764 48.252 55.5645 47.7598C54.8262 47.3643 54.6328 46.4678 55.125 45.7559C55.4941 45.1143 56.417 44.8242 57.1289 45.3164C57.7441 45.791 58.043 46.7051 57.5684 47.3203ZM58.6143 44.0156C57.876 43.6201 57.6826 42.7236 58.1748 42.0117C58.5439 41.3701 59.4668 41.0801 60.1787 41.5723C60.917 41.9678 61.1104 42.8643 60.6182 43.5762C60.1436 44.1914 59.2559 44.3848 58.6143 44.0156Z" fill="black"/>
<path id="Vector_8" d="M61.5762 47.2852C61.207 47.9268 60.2842 48.2168 59.5723 47.7246C58.834 47.3291 58.6406 46.4326 59.1328 45.7207C59.502 45.0791 60.4248 44.7891 61.1367 45.2812C61.7783 45.6504 61.9717 46.5469 61.5762 47.2852Z" fill="#151B28"/>
<path id="Vector_9" d="M39.4277 41.0098C39.4277 41.4761 39.5196 41.9378 39.698 42.3686C39.8765 42.7994 40.138 43.1908 40.4677 43.5205C40.7975 43.8503 41.1889 44.1118 41.6197 44.2903C42.0505 44.4687 42.5122 44.5605 42.9785 44.5605C43.4448 44.5605 43.9065 44.4687 44.3373 44.2903C44.7681 44.1118 45.1596 43.8503 45.4893 43.5205C45.819 43.1908 46.0806 42.7994 46.259 42.3686C46.4375 41.9378 46.5293 41.4761 46.5293 41.0098C46.5293 40.068 46.1552 39.1649 45.4893 38.499C44.8234 37.8331 43.9202 37.459 42.9785 37.459C42.0368 37.459 41.1336 37.8331 40.4677 38.499C39.8018 39.1649 39.4277 40.068 39.4277 41.0098Z" fill="white"/>
<path id="Vector_10" d="M40.1836 41.9414C40.1836 42.3869 40.2713 42.8281 40.4418 43.2397C40.6123 43.6513 40.8622 44.0253 41.1773 44.3403C41.4923 44.6554 41.8663 44.9052 42.2779 45.0757C42.6895 45.2462 43.1306 45.334 43.5762 45.334C44.0217 45.334 44.4628 45.2462 44.8745 45.0757C45.2861 44.9052 45.6601 44.6554 45.9751 44.3403C46.2901 44.0253 46.54 43.6513 46.7105 43.2397C46.881 42.8281 46.9687 42.3869 46.9687 41.9414C46.9687 41.4959 46.881 41.0547 46.7105 40.6431C46.54 40.2315 46.2901 39.8575 45.9751 39.5425C45.6601 39.2275 45.2861 38.9776 44.8745 38.8071C44.4628 38.6366 44.0217 38.5488 43.5762 38.5488C43.1306 38.5488 42.6895 38.6366 42.2779 38.8071C41.8663 38.9776 41.4923 39.2275 41.1773 39.5425C40.8622 39.8575 40.6123 40.2315 40.4418 40.6431C40.2713 41.0547 40.1836 41.4959 40.1836 41.9414Z" fill="#514DDF"/>
<path id="Vector_11" d="M44.2705 35.8682C41.4053 35.1475 38.5576 36.835 37.8369 39.7002C37.1074 42.5742 38.8125 45.4131 41.6777 46.1426C44.4463 46.8457 47.3906 45.1758 48.1201 42.3018C48.8408 39.4365 47.1445 36.5977 44.2705 35.8682ZM42.2051 44.0684C40.4297 43.6201 39.3926 41.8887 39.8408 40.1133C40.2891 38.3291 42.0205 37.3008 43.7959 37.749C45.4834 38.1709 46.6172 39.9287 46.1602 41.7041C45.7207 43.4883 43.9805 44.5166 42.2051 44.0684Z" fill="black"/>
<path id="Vector_12" d="M52.2334 31.7636C51.8115 31.7636 51.46 31.4385 51.4248 31.0166L51.1084 27.1933C51.0526 26.5157 51.1309 25.8338 51.3388 25.1865C51.5467 24.5392 51.8802 23.9392 52.3202 23.4208C52.7601 22.9025 53.298 22.476 53.9029 22.1656C54.5079 21.8553 55.168 21.6673 55.8457 21.6123C56.3104 21.5739 56.763 21.4444 57.1775 21.231C57.5921 21.0176 57.9605 20.7245 58.2617 20.3686C58.563 20.0127 58.791 19.6009 58.933 19.1568C59.0749 18.7126 59.1279 18.2449 59.0889 17.7802L58.6494 12.4453C58.6324 12.2298 58.7014 12.0163 58.8415 11.8516C58.9815 11.6869 59.181 11.5843 59.3965 11.5664C59.612 11.5494 59.8255 11.6184 59.9902 11.7584C60.1549 11.8984 60.2575 12.098 60.2754 12.3135L60.7148 17.6484C60.7707 18.326 60.6924 19.008 60.4844 19.6553C60.2765 20.3026 59.943 20.9026 59.5031 21.4209C59.0631 21.9393 58.5253 22.3658 57.9203 22.6761C57.3154 22.9864 56.6552 23.1745 55.9775 23.2295C55.0371 23.3086 54.1758 23.748 53.5605 24.4687C52.9453 25.1894 52.6553 26.1123 52.7344 27.0527L53.0508 30.8759C53.0678 31.0915 52.9987 31.3049 52.8587 31.4697C52.7187 31.6344 52.5191 31.7369 52.3037 31.7549C52.2861 31.7636 52.2598 31.7636 52.2334 31.7636Z" fill="#151B28"/>
</g>
</svg>
