<svg width="86" height="86" viewBox="0 0 86 86" fill="none" xmlns="http://www.w3.org/2000/svg">
<g id="matches-match-svgrepo-com 1">
<path id="Vector" d="M72.3465 25.822H13.4456V84.5014H72.3465V25.822Z" fill="#F95428"/>
<g id="Group">
<path id="Vector_2" d="M40.5989 39.801C40.5989 54.3967 30.2696 51.9267 30.4942 61.8068C30.621 67.385 35.3163 70.5786 40.5859 71.1991C39.3232 69.7394 33.7516 62.4716 42.3953 56.6421C42.6726 62.2606 47.3353 63.1539 47.3353 67.1959C47.3353 68.8979 46.9765 70.0409 46.5618 70.7958C50.9105 69.659 54.5959 66.6278 55.1945 61.5822C56.7664 48.3337 40.5989 39.801 40.5989 39.801Z" fill="#F95428"/>
<path id="Vector_3" d="M58.7296 7.81592C61.644 7.81592 64.0079 10.1797 64.0079 13.0942C64.0079 14.9156 63.0847 16.5199 61.6813 17.4699C60.8388 18.0392 59.8226 18.3724 58.7296 18.3724C57.6366 18.3724 56.6224 18.0412 55.7821 17.4741V17.4721C54.3767 16.5241 53.4514 14.9158 53.4514 13.0943C53.4514 10.1797 55.8152 7.81592 58.7296 7.81592Z" fill="#F95428"/>
<path id="Vector_4" d="M51.1248 17.4719C50.2823 18.0412 49.2681 18.3724 48.1731 18.3724C47.0801 18.3724 46.0659 18.0412 45.2256 17.4741V17.4721C43.8202 16.5241 42.897 14.9158 42.897 13.0943C42.897 10.1799 45.2588 7.81609 48.1733 7.81609C51.0897 7.81609 53.4515 10.1799 53.4515 13.0943C53.4514 14.9156 52.5282 16.5219 51.1248 17.4719Z" fill="#F95428"/>
<path id="Vector_5" d="M40.5683 17.4741C39.7258 18.0414 38.7116 18.3724 37.6188 18.3724C36.526 18.3724 35.5116 18.0412 34.6693 17.4741V17.4721C33.2639 16.5241 32.3407 14.9158 32.3407 13.0943C32.3407 10.1799 34.7025 7.81609 37.6189 7.81609C40.5334 7.81609 42.8972 10.1799 42.8972 13.0943C42.897 14.9156 41.9719 16.5239 40.5683 17.4741Z" fill="#F95428"/>
<path id="Vector_6" d="M30.012 17.4741C29.1694 18.0413 28.1553 18.3724 27.0624 18.3724C25.9696 18.3724 24.9553 18.0412 24.1129 17.4741V17.4721C22.7095 16.5241 21.7844 14.9158 21.7844 13.0943C21.7844 10.1799 24.1482 7.81606 27.0626 7.81606C29.977 7.81606 32.3409 10.1799 32.3409 13.0943C32.3405 14.9156 31.4154 16.5239 30.012 17.4741Z" fill="#F95428"/>
</g>
<g id="Group_2">
<path id="Vector_7" d="M61.6813 17.4699V25.822H55.7821V17.4741C56.6225 18.0414 57.6366 18.3724 58.7296 18.3724C59.8226 18.3724 60.839 18.0392 61.6813 17.4699Z" fill="#F7B239"/>
<path id="Vector_8" d="M51.1248 17.4719V25.8218H45.2256V17.474C46.0659 18.0412 47.0803 18.3723 48.1731 18.3723C49.2681 18.3724 50.2825 18.0412 51.1248 17.4719Z" fill="#F7B239"/>
<path id="Vector_9" d="M40.5683 17.4741V25.822H34.6691V17.4741C35.5116 18.0414 36.5258 18.3724 37.6186 18.3724C38.7114 18.3724 39.726 18.0412 40.5683 17.4741Z" fill="#F7B239"/>
<path id="Vector_10" d="M30.012 17.4741V25.822H24.1128V17.4741C24.9553 18.0414 25.9695 18.3724 27.0623 18.3724C28.1551 18.3724 29.1695 18.0412 30.012 17.4741Z" fill="#F7B239"/>
</g>
<path id="Vector_11" d="M35.9243 54.3137C38.4307 51.968 41.4822 49.1127 42.1303 42.4403C44.349 43.92 47.8388 46.5855 50.4301 50.1513C50.9345 50.8451 51.9057 50.9983 52.5987 50.4944C53.2923 49.9902 53.446 49.0197 52.9419 48.3258C48.4257 42.1116 41.7108 38.5235 41.4273 38.3738C40.9462 38.12 40.3676 38.1361 39.901 38.4173C39.435 38.6981 39.1502 39.2026 39.1502 39.7468C39.1502 47.0427 36.4318 49.5864 33.8029 52.0465C31.4063 54.289 28.9283 56.6081 29.046 61.7878C29.1155 64.846 30.3822 67.5097 32.7091 69.49C34.7123 71.1951 37.4821 72.3304 40.5082 72.6866C40.5693 72.6938 40.63 72.6972 40.6901 72.6972C41.2597 72.6972 41.79 72.3836 42.0614 71.8718C42.3614 71.3058 42.2829 70.6136 41.8637 70.1291C41.1713 69.3289 38.9447 66.4743 39.3618 63.3361C39.5466 61.9454 40.2477 60.6375 41.4532 59.4302C42.0864 61.3277 43.1881 62.6313 44.1286 63.7441C45.2515 65.0728 45.8867 65.8859 45.8867 67.1416C45.8867 68.3154 45.6855 69.3015 45.305 69.9936C45.0064 70.5371 45.0595 71.2063 45.4408 71.6956C45.8222 72.1849 46.4581 72.4004 47.058 72.2434C52.5714 70.8018 56.228 66.8645 56.8396 61.7107C57.2011 58.6632 56.7308 55.6143 55.4409 52.6483C55.099 51.8622 54.1845 51.5017 53.3984 51.8437C52.612 52.1855 52.2519 53.1001 52.5937 53.8865C53.661 56.3414 54.0522 58.8507 53.7562 61.345C53.5743 62.8783 52.7355 66.2223 48.9458 68.2207C48.976 67.8733 48.9913 67.5135 48.9913 67.1418C48.9913 64.6886 47.6675 63.1223 46.4998 61.7403C45.3025 60.3235 44.1716 58.9851 44.0495 56.5116C44.0218 55.9519 43.6947 55.4507 43.1935 55.1999C42.6925 54.9493 42.095 54.9879 41.6307 55.3012C38.4719 57.4315 36.673 59.9974 36.2836 62.9275C35.9992 65.0689 36.5354 67.0556 37.2671 68.6545C34.5361 67.4858 32.2304 65.2708 32.1497 61.7174C32.0641 57.9262 33.6833 56.4108 35.9243 54.3137Z" fill="#EDEDED"/>
</g>
</svg>
