<svg width="82" height="82" viewBox="0 0 82 82" fill="none" xmlns="http://www.w3.org/2000/svg">
<g id="skull-svgrepo-com 1">
<g id="Page-1">
<g id="Artboard">
<g id="013-Skull">
<path id="Fill-1408" fill-rule="evenodd" clip-rule="evenodd" d="M27.6156 3.49858C-5.16747 10.3838 -2.12782 47.148 13.4833 60.0984C25.6645 70.2013 41.9147 67.73 41.9147 67.73C41.9147 67.73 40.1955 80.9462 44.6914 81.7209C49.1844 82.4957 53.7029 66.4152 53.7029 66.4152C53.7029 66.4152 53.553 80.2166 59.0894 78.9386C64.6258 77.6577 60.7803 62.9542 60.7803 62.9542C60.7803 62.9542 65.7229 77.6803 70.2188 74.9969C74.7147 72.3164 70.2923 57.1379 70.2923 57.1379C70.2923 57.1379 75.8372 69.3333 79.7054 65.6489C83.5735 61.9646 73.7561 46.9275 73.7561 46.9275C73.7561 46.9275 85.2701 -8.60914 27.6156 3.49858Z" fill="#FEFDFC"/>
<path id="Fill-1409" fill-rule="evenodd" clip-rule="evenodd" d="M54.1799 40.9485C52.1101 42.6564 52.0309 55.635 55.1554 55.423C58.2799 55.2081 58.7973 49.6123 58.7973 49.6123C58.7973 49.6123 62.4195 52.0355 64.1358 50.3955C65.8522 48.7555 56.2497 39.2407 54.1799 40.9485Z" fill="#606263"/>
<path id="Fill-1410" fill-rule="evenodd" clip-rule="evenodd" d="M39.1968 25.6063C32.7499 21.8683 24.8524 28.9655 25.0079 34.1994C25.2511 42.34 33.1712 51.3345 40.1355 48.8689C47.1027 46.4004 47.0094 30.1361 39.1968 25.6063Z" fill="#606263"/>
<path id="Fill-1411" fill-rule="evenodd" clip-rule="evenodd" d="M63.0463 20.7565C58.6636 18.2145 53.294 23.0412 53.3986 26.5983C53.5654 32.1347 58.9492 38.2507 63.6854 36.574C68.4216 34.8972 68.3594 23.8357 63.0463 20.7565Z" fill="#606263"/>
</g>
</g>
</g>
</g>
</svg>
